<svg id="Capa_1" enable-background="new 0 0 511.997 511.997" height="512" viewBox="0 0 511.997 511.997" width="512" xmlns="http://www.w3.org/2000/svg"><g><path d="m462.13 88.431c-137.42-8.734-274.84-8.734-412.259 0-21.485 1.365-39.093 17.739-41.782 39.099-10.782 85.646-10.782 171.292 0 256.938 2.689 21.36 20.296 37.734 41.781 39.099 137.42 8.734 274.84 8.734 412.259 0 21.485-1.366 39.092-17.739 41.781-39.099 10.782-85.646 10.782-171.292 0-256.938-2.688-21.36-20.295-37.734-41.78-39.099z" fill="#f1f1f4"/><path d="m57.95 424.057c-2.689-.154-5.388-.319-8.077-.494-21.489-1.36-39.095-17.739-41.784-39.095-10.786-85.648-10.786-171.297 0-256.935 2.689-21.366 20.294-37.735 41.784-39.105 2.699-.175 5.398-.34 8.087-.494-11.353 7.313-19.378 19.366-21.16 33.51-11.291 89.697-11.291 179.404 0 269.101 1.782 14.145 9.807 26.198 21.15 33.512z" fill="#dfeaef"/><g fill="#454045"><path d="m350.501 204.256c4.267 0 7.726-3.459 7.726-7.726s-3.459-7.726-7.726-7.726h-52.332c-4.267 0-7.726 3.459-7.726 7.726v124.198c0 4.267 3.459 7.726 7.726 7.726h52.332c4.267 0 7.726-3.459 7.726-7.726s-3.459-7.726-7.726-7.726h-44.606v-46.646h40.747c4.267 0 7.726-3.459 7.726-7.726s-3.459-7.726-7.726-7.726h-40.747v-46.646h44.606z"/><path d="m479.182 297.115c-3.269-2.741-8.143-2.315-10.885.955-1.338 1.595-2.787 3.09-4.305 4.443-7.813 6.959-17.657 10.487-29.257 10.487-30.297 0-54.945-24.648-54.945-54.945s24.648-54.945 54.945-54.945c11.012 0 21.633 3.243 30.715 9.379 3.537 2.389 8.339 1.459 10.728-2.077s1.459-8.339-2.077-10.728c-11.647-7.868-25.259-12.027-39.366-12.027-38.817 0-70.398 31.58-70.398 70.397s31.581 70.398 70.398 70.398c15.286 0 28.957-4.98 39.535-14.401 2.076-1.849 4.05-3.886 5.867-6.052 2.742-3.268 2.315-8.142-.955-10.884z"/><path d="m273.728 227.96c0-22.222-18.906-40.301-42.145-40.301h-33.308c-2.053 0-4.023.817-5.472 2.272-1.45 1.454-2.261 3.426-2.254 5.48 0 .001.04 12.234.065 22.154-.063.399-.106.804-.106 1.22v101.943c0 4.267 3.459 7.726 7.726 7.726s7.726-3.459 7.726-7.726v-52.364c1.138-.006 2.362-.013 3.644-.019l50.597 57.488c1.527 1.735 3.659 2.622 5.803 2.622 1.813 0 3.634-.634 5.102-1.927 3.203-2.819 3.515-7.701.695-10.904l-41.683-47.36c.518-.001 1.013-.001 1.464-.001 23.24-.001 42.146-18.081 42.146-40.303zm-42.145-24.849c14.469 0 26.692 11.379 26.692 24.849s-12.223 24.849-26.692 24.849c-5.836 0-17.577.058-25.395.1-.044-7.732-.103-19.273-.103-24.949 0-4.776-.034-16.814-.058-24.849z"/></g><circle cx="97.497" cy="258.056" fill="#dd5790" r="60.757"/><path d="m111.148 317.281c-4.389.999-8.962 1.535-13.65 1.535-33.553 0-60.759-27.196-60.759-60.759 0-33.553 27.207-60.759 60.759-60.759 4.687 0 9.261.536 13.65 1.535-26.99 6.202-47.11 30.369-47.11 59.224 0 28.865 20.12 53.022 47.11 59.224z" fill="#da387d"/></g></svg>