<svg id="Capa_1" enable-background="new 0 0 512 512" height="512" viewBox="0 0 512 512" width="512" xmlns="http://www.w3.org/2000/svg"><g><g><g><path d="m297.392 375.343h-37.543l-11.921 64.903c2.699-.027 5.408-.045 8.133-.045 18.553 0 36.516.631 53.576 1.808z" fill="#365e7d"/><path d="m260.514 375.343h-45.784l-12.245 66.667c14.761-1.019 30.2-1.626 46.109-1.772z" fill="#2b4d66"/><path d="m475.693 27.048h-439.264c-15.943 0-28.868 12.924-28.868 28.868v292.764c0 15.943 12.925 28.868 28.868 28.868h439.264c15.943 0 28.868-12.924 28.868-28.868v-292.763c0-15.944-12.925-28.869-28.868-28.869z" fill="#4a80aa"/><path d="m83.228 348.68v-292.764c0-15.943 12.925-28.868 28.868-28.868h-75.667c-15.943 0-28.868 12.924-28.868 28.868v292.764c0 15.943 12.925 28.868 28.868 28.868h75.667c-15.944 0-28.868-12.924-28.868-28.868z" fill="#407093"/><path d="m388.193 450.022c-35.373-7.237-81.578-11.618-132.132-11.618-19.252 0-37.87.637-55.502 1.823-6.047 5.717-9.742 13.801-9.742 22.602 0 4.131 1.996 7.68 4.976 9.935 19.031-1.5 39.271-2.311 60.268-2.311 54.277 0 103.532 5.401 139.755 14.181 6.383 1.547 12.521-3.303 12.521-9.871 0-11.981-8.405-22.34-20.144-24.741z" fill="#4a80aa"/><g><path d="m191.235 462.818c0-8.951 3.971-17.134 10.395-22.663-29.092 1.916-55.525 5.33-77.7 9.866-11.738 2.401-20.144 12.761-20.144 24.742 0 6.568 6.138 11.418 12.521 9.871 22.374-5.423 49.723-9.555 80.153-11.923-3.116-2.14-5.225-5.716-5.225-9.893z" fill="#407093"/></g><path d="m40.061 347.048h432c1.103 0 2-.897 2-2v-285.5c0-1.103-.897-2-2-2h-432c-1.103 0-2 .897-2 2v285.5c0 1.103.897 2 2 2z" fill="#dbedff"/><path d="m40.061 57.548c-1.103 0-2 .897-2 2v285.5c0 1.103.897 2 2 2h43.167v-289.5z" fill="#b5dcff"/></g><g><path d="m256.061 207.648c-8.284 0-15-6.716-15-15v-83.85c0-8.284 6.716-15 15-15s15 6.716 15 15v83.85c0 8.284-6.716 15-15 15z" fill="#ff76aa"/></g><path d="m323.169 117.105c-9.755-7.7-24.108-.628-24.108 11.8v.1c0 4.529 1.999 8.867 5.553 11.673 18.572 14.661 30.393 37.51 29.934 63.057-.735 40.921-33.336 74.767-74.205 76.95-45.22 2.414-82.782-33.682-82.782-78.386 0-24.848 11.613-47.024 29.688-61.416 3.622-2.884 5.812-7.197 5.812-11.827v-.146c0-12.508-14.44-19.461-24.246-11.696-25.779 20.415-42.103 52.272-41.22 87.83 1.414 56.923 47.277 103.466 104.175 105.671 61.773 2.394 112.791-47.166 112.791-108.417 0-34.512-16.199-65.309-41.392-85.193z" fill="#ff76aa"/><g fill="#ff5595"><path d="m259.394 192.648v-83.85c0-4.828 2.291-9.111 5.833-11.855-2.537-1.964-5.71-3.145-9.167-3.145-8.284 0-15 6.716-15 15v83.85c0 8.284 6.716 15 15 15 3.456 0 6.63-1.181 9.167-3.145-3.542-2.744-5.833-7.027-5.833-11.855z"/><g><path d="m304.614 140.678c18.572 14.661 30.393 37.51 29.934 63.057-.706 39.271-30.764 72.007-69.308 76.514 4.382.512 8.867.679 13.436.436 40.869-2.183 73.47-36.029 74.205-76.95.459-25.547-11.362-48.396-29.934-63.057-3.554-2.806-5.553-7.144-5.553-11.673v-.1c0-5.014 2.338-9.155 5.766-11.807-9.755-7.689-24.099-.618-24.099 11.807v.1c0 4.529 1.999 8.867 5.553 11.673z"/><path d="m165.929 205.045c-.883-35.558 15.44-67.416 41.22-87.83.046-.037.095-.068.141-.104-5.099-3.918-12.614-4.538-18.474.104-25.779 20.415-42.103 52.272-41.22 87.83 1.414 56.923 47.277 103.466 104.175 105.671 4.54.176 9.02.064 13.428-.306-54.607-4.604-97.898-50.088-99.27-105.365z"/></g></g></g><g><path d="m30.5 59.56v285.5c0 5.238 4.262 9.5 9.5 9.5h432c5.238 0 9.5-4.262 9.5-9.5v-285.5c0-5.238-4.262-9.5-9.5-9.5h-432c-5.238 0-9.5 4.262-9.5 9.5zm15 5.5h421v274.5h-421z"/><path d="m327.755 111.229c-14.592-11.516-36.255-1.135-36.255 17.787 0 6.942 3.064 13.342 8.406 17.56 17.612 13.904 27.483 34.692 27.082 57.035-.666 37.051-30.143 67.621-67.105 69.595-40.862 2.179-74.883-30.305-74.883-70.896 0-21.711 9.79-41.958 26.86-55.548 5.49-4.372 8.64-10.821 8.64-17.694v-.146c0-18.771-21.682-29.231-36.402-17.576-28.914 22.897-44.975 57.121-44.062 93.896 1.516 60.991 50.44 110.617 111.384 112.979 65.933 2.555 120.58-50.15 120.58-115.911 0-35.689-16.127-68.887-44.245-91.081zm-75.755 192.004c-53.056-2.057-95.649-45.263-96.968-98.363-.795-32.019 13.193-61.821 38.378-81.765 4.913-3.89 12.09-.412 12.09 5.816v.146c0 2.278-1.087 4.45-2.983 5.959-20.665 16.454-32.517 40.978-32.517 67.284 0 49.218 41.262 88.523 90.683 85.875 44.784-2.392 80.497-39.422 81.304-84.304.486-27.068-11.464-52.246-32.785-69.078-1.691-1.335-2.701-3.498-2.701-5.886 0-6.202 7.135-9.724 11.962-5.913 24.49 19.331 38.537 48.237 38.537 79.306 0 57.059-47.397 103.145-105 100.923z"/><path d="m475.632 19.56h-202.132c-4.143 0-7.5 3.358-7.5 7.5s3.357 7.5 7.5 7.5h202.132c11.782 0 21.368 9.586 21.368 21.368v292.764c0 11.782-9.586 21.368-21.368 21.368-20.368 0-423.25 0-439.264 0-11.782 0-21.368-9.585-21.368-21.368v-292.764c0-11.782 9.586-21.367 21.368-21.367h202.132c4.143 0 7.5-3.358 7.5-7.5s-3.357-7.5-7.5-7.5h-202.132c-20.054-.001-36.368 16.314-36.368 36.367v292.765c0 20.054 16.314 36.368 36.368 36.368h169.19l-9.392 47.976c-26.969 1.954-52.15 5.219-73.801 9.648-15.147 3.099-26.141 16.594-26.141 32.09 0 11.426 10.68 19.853 21.787 17.16 37.165-9.009 86.171-13.97 137.988-13.97s100.823 4.961 137.988 13.97c11.107 2.691 21.787-5.731 21.787-17.16 0-15.496-10.993-28.991-26.14-32.089-21.651-4.43-46.833-7.695-73.802-9.649l-9.392-47.976h169.19c20.054 0 36.368-16.314 36.368-36.368v-292.764c.002-20.054-16.312-36.369-36.366-36.369zm-254.789 365.5h70.314l9.2 46.999c-29.701-1.555-60.363-1.485-88.715 0zm165.787 72.321c8.196 1.677 14.146 8.992 14.146 17.394 0 1.714-1.589 2.986-3.254 2.582-38.288-9.281-88.548-14.392-141.521-14.392s-103.233 5.111-141.521 14.392c-1.669.405-3.254-.872-3.254-2.582 0-8.402 5.949-15.717 14.146-17.395 40.639-8.314 88.805-11.465 130.629-11.465 41.896 0 90.12 3.179 130.629 11.466z"/><path d="m256 215.16c12.406 0 22.5-10.093 22.5-22.5v-24.425c0-4.142-3.357-7.5-7.5-7.5s-7.5 3.358-7.5 7.5v24.425c0 4.136-3.364 7.5-7.5 7.5s-7.5-3.364-7.5-7.5v-83.85c0-4.136 3.364-7.5 7.5-7.5s7.5 3.364 7.5 7.5v24.425c0 4.142 3.357 7.5 7.5 7.5s7.5-3.358 7.5-7.5v-24.425c0-12.407-10.094-22.5-22.5-22.5s-22.5 10.093-22.5 22.5v83.85c0 12.407 10.094 22.5 22.5 22.5z"/></g></g></svg>